<!--?xml version="1.0" standalone="no"?-->
              <svg id="sw-js-blob-svg" viewBox="0 0 100 100" xmlns="http://www.w3.org/2000/svg" version="1.1">
                    <defs> 
                        <linearGradient id="sw-gradient" x1="0" x2="1" y1="1" y2="0">
                            <stop id="stop1" stop-color="rgba(248, 117, 55, 1)" offset="0%"></stop>
                            <stop id="stop2" stop-color="rgba(251, 168, 31, 1)" offset="100%"></stop>
                        </linearGradient>
                    </defs>
                <path fill="url(#sw-gradient)" d="M19.3,-33.8C25.4,-29.9,31.2,-25.6,34.6,-19.9C37.9,-14.2,39,-7.1,39.4,0.2C39.8,7.6,39.6,15.2,35.9,20.3C32.2,25.4,25,28.1,18.4,32.5C11.8,36.9,5.9,43.1,0.3,42.5C-5.3,42,-10.6,34.7,-16.9,30.2C-23.3,25.6,-30.7,23.8,-35.6,19.2C-40.5,14.7,-42.9,7.3,-41.6,0.7C-40.3,-5.9,-35.4,-11.7,-31.3,-17.6C-27.1,-23.4,-23.7,-29.2,-18.6,-33.8C-13.5,-38.4,-6.7,-41.8,-0.1,-41.7C6.6,-41.5,13.1,-37.8,19.3,-33.8Z" width="100%" height="100%" transform="translate(50 50)" stroke-width="0" style="transition: all 0.3s ease 0s;"></path>
              </svg>